<svg xmlns="http://www.w3.org/2000/svg" viewBox="0 0 48 48" width="48" height="48">
  <defs>
    <linearGradient id="evtPlate" gradientUnits="userSpaceOnUse" x1="4" y1="2" x2="44" y2="46">
      <stop offset="0" stop-color="#f9f5ff" />
      <stop offset="1" stop-color="#ebdefe" />
    </linearGradient>
  </defs>
  <rect width="48" height="48" rx="11.5" fill="url(#evtPlate)" />
  <path
    d="M12.6 11.4A2.6 2.6 0 0 1 15.2 8.8h17.2a2.6 2.6 0 0 1 2.6 2.6v20.2a7 7 0 0 1-7 7H15.6a3 3 0 0 1-3-3z"
    fill="#ffffff"
    stroke="#a855f7"
    stroke-width="2"
    stroke-linejoin="round"
  />
  <path d="M28 38.6a7 7 0 0 0 7-7h-7z" fill="#e9d5ff" stroke="#a855f7" stroke-width="2" stroke-linejoin="round" />
  <g fill="#a855f7">
    <rect x="17" y="14.6" width="13" height="2.2" rx="1.1" />
    <rect x="17" y="19.4" width="13" height="2.2" rx="1.1" />
    <rect x="17" y="24.2" width="13" height="2.2" rx="1.1" />
    <rect x="17" y="29" width="8" height="2.2" rx="1.1" />
  </g>
</svg>
